<svg version="1.1" xmlns="http://www.w3.org/2000/svg" xmlns:xlink="http://www.w3.org/1999/xlink" width="1000"
    height="1000" viewBox="0,0,34.66667,55.17054">
    <g transform="translate(-222.5,-203.99613)">
        <g data-paper-data="{&quot;isPaintingLayer&quot;:true}" fill-rule="nonzero" stroke-linejoin="miter"
            stroke-miterlimit="10" stroke-dasharray="" stroke-dashoffset="0" style="mix-blend-mode: normal">
            <path
                d="M231,237.5c0,0 2.93169,-11.30411 3.4677,-15.11257c0.519,-3.68764 -0.30103,-7.38743 -0.30103,-7.38743h11.66667c0,0 -1.70173,3.37368 -1.15978,7.22434c0.5119,3.63716 4.32645,15.27566 4.32645,15.27566z"
                fill="#f2eaae" stroke="#000000" stroke-width="0" stroke-linecap="butt" />
            <path
                d="M228.20833,246.75c0,0 0.13589,-2.00127 0.13589,-6.08333c0,-1.68957 1.38477,-3.58334 2.7178,-3.58334c2.87052,0 13.90282,0 18.75284,0c1.42007,0 2.31013,1.89376 2.31013,3.58334c0,4.08206 0,5.91666 0,5.91666z"
                fill="#f2eaae" stroke="#000000" stroke-width="0" stroke-linecap="butt" />
            <path
                d="M244.91667,237.91667c0,0 9.5,8.50127 9.5,12.58333c0,1.68957 -1.09164,3.58333 -2.83334,3.58333c-5.94845,0 -19.47936,0 -23,0c-1.63494,0 -3.33334,-1.89376 -3.33334,-3.58333c0,-4.08206 10,-12.58333 10,-12.58333z"
                data-paper-data="{&quot;index&quot;:null}" fill="#f2eaae" stroke="#000000" stroke-width="0"
                stroke-linecap="butt" />
            <path
                d="M222.5,257c0,-0.8873 0,-1.97644 0,-2.5c0,-0.80581 1.39711,-2 3,-2c4.0687,0 22.15842,0 29,0c1.65922,0 2.66667,1.43614 2.66667,2.33333c0,0.58411 0,1.26578 0,2.16667c0,0.98486 -1.1404,2.16667 -2.5,2.16667c-6.46023,0 -25.06196,0 -29.16667,0c-1.52929,0 -3,-0.96791 -3,-2.16667z"
                fill="#f2eaae" stroke="#000000" stroke-width="0" stroke-linecap="butt" />
            <g fill="none">
                <g stroke="#e6dea5" stroke-width="5" stroke-linecap="round">
                    <path d="" />
                </g>
                <g stroke="none" stroke-width="1" stroke-linecap="butt" font-family="sans-serif" font-weight="normal"
                    font-size="12" text-anchor="start" />
            </g>
            <g data-paper-data="{&quot;index&quot;:null}" fill="none">
                <g stroke="#e6dea5" stroke-width="5" stroke-linecap="round">
                    <path d="" />
                </g>
                <g stroke="none" stroke-width="1" stroke-linecap="butt" font-family="sans-serif" font-weight="normal"
                    font-size="12" text-anchor="start" />
            </g>
            <path
                d="M227.82639,207.07339c0,-0.5654 0,-1.25941 0,-1.59303c0,-0.51347 0.89025,-1.27442 1.91163,-1.27442c2.59262,0 -2.12328,0 2.23625,0c1.05727,0 1.69923,0.91512 1.69923,1.48682c0,0.3722 0,0.80657 0,1.38062c0,0.62756 -0.72667,1.38062 -1.59303,1.38062c-4.11653,0 0.27312,0 -2.34245,0c-0.97448,0 -1.91163,-0.61676 -1.91163,-1.38062z"
                data-paper-data="{&quot;index&quot;:null}" fill="#f2eaae" stroke="#000000" stroke-width="0"
                stroke-linecap="butt" />
            <path
                d="M246.37363,207.07339c0,-0.56539 0,-1.2594 0,-1.59302c0,-0.51347 0.89025,-1.27442 1.91163,-1.27442c2.59262,0 -2.12328,0 2.23624,0c1.05727,0 1.69923,0.91512 1.69923,1.48682c0,0.3722 0,0.80657 0,1.38062c0,0.62757 -0.72668,1.38063 -1.59303,1.38063c-4.11652,0 0.27312,0 -2.34245,0c-0.97448,0 -1.91163,-0.61677 -1.91163,-1.38063z"
                data-paper-data="{&quot;index&quot;:null}" fill="#f2eaae" stroke="#000000" stroke-width="0"
                stroke-linecap="butt" />
            <path
                d="M234.65104,206.86357c0,-0.56539 0,-1.2594 0,-1.59302c0,-0.51347 0.89025,-1.27442 1.91163,-1.27442c2.59262,0 2.72754,0 7.08706,0c1.05727,0 1.69923,0.91512 1.69923,1.48682c0,0.3722 0,0.80657 0,1.38062c0,0.62757 -0.72668,1.38063 -1.59303,1.38063c-4.11652,0 -4.5777,0 -7.19327,0c-0.97448,0 -1.91163,-0.61677 -1.91163,-1.38063z"
                data-paper-data="{&quot;index&quot;:null}" fill="#f2eaae" stroke="#000000" stroke-width="0"
                stroke-linecap="butt" />
            <path
                d="M227.82821,215.86737c0,-1.28657 0,-7.86582 0,-8.62499c0,-1.16842 2.0258,-0.34444 4.35,-0.34444c5.89962,0 6.20664,0 16.12692,0c2.40586,0 4.08889,-0.47316 4.08889,0.82777c0,0.84696 -0.22222,6.83539 -0.22222,8.14166c0,1.42806 -1.65359,3.14168 -3.62501,3.14168c-9.36732,0 -10.41676,0 -16.3686,0c-2.21747,0 -4.35,-1.40349 -4.35,-3.14168z"
                data-paper-data="{&quot;index&quot;:null}" fill="#f2eaae" stroke="#000000" stroke-width="0"
                stroke-linecap="butt" />
        </g>
    </g>
</svg>