<svg version="1.1" xmlns="http://www.w3.org/2000/svg" xmlns:xlink="http://www.w3.org/1999/xlink" width="1000"
    height="1000" viewBox="0,0,34.66667,87.58333">
    <g transform="translate(-222.5,-171.58334)">
        <g data-paper-data="{&quot;isPaintingLayer&quot;:true}" fill-rule="nonzero" stroke-linejoin="miter"
            stroke-miterlimit="10" stroke-dasharray="" stroke-dashoffset="0" style="mix-blend-mode: normal">
            <g>
                <path d="M240,185.91667v-11.83333" fill="none" stroke="#f2eaae" stroke-width="5"
                    stroke-linecap="round" />
                <path d="M245.91667,180h-11.83333" fill="none" stroke="#f2eaae" stroke-width="5"
                    stroke-linecap="round" />
                <path
                    d="M235.41667,206.58333c0,0 -10,-13.00127 -10,-17.08333c0,-1.68957 1.6984,-3.58334 3.33333,-3.58334c3.52064,0 17.05154,0 23,0c1.74169,0 2.83333,1.89376 2.83333,3.58333c0,4.08206 -9.5,17.08333 -9.5,17.08333z"
                    fill="#f2eaae" stroke="#000000" stroke-width="0" stroke-linecap="butt" />
                <path
                    d="M243.68952,206.25c0,0 6.89516,1.00582 6.89516,2.4228c0,0.58649 -1.12566,3.74386 -2.38979,3.74386c-4.31743,0 -14.30491,0 -16.86021,0c-1.18665,0 -1.91936,-3.15737 -1.91936,-3.74386c0,-1.41698 7.25806,-2.4228 7.25806,-2.4228z"
                    data-paper-data="{&quot;index&quot;:null}" fill="#f2eaae" stroke="#000000" stroke-width="0"
                    stroke-linecap="butt" />
                <path
                    d="M244.38642,208.08333c0,0 8.19758,1.97302 8.19758,4.7526c0,1.15048 -0.94199,2.43999 -2.4449,2.43999c-5.13294,0 -16.80879,0 -19.84677,0c-1.41079,0 -2.87635,-1.28951 -2.87635,-2.43999c0,-2.77958 8.62903,-4.7526 8.62903,-4.7526z"
                    data-paper-data="{&quot;index&quot;:null}" fill="#f2eaae" stroke="#000000" stroke-width="0"
                    stroke-linecap="butt" />
                <path
                    d="M231,237.5c0,0 2.93169,-11.30411 3.4677,-15.11257c0.519,-3.68764 -0.30103,-7.38743 -0.30103,-7.38743h11.66667c0,0 -1.70173,3.37368 -1.15978,7.22434c0.5119,3.63716 4.32645,15.27566 4.32645,15.27566z"
                    fill="#f2eaae" stroke="#000000" stroke-width="0" stroke-linecap="butt" />
                <path
                    d="M228.20833,246.75c0,0 0.13589,-2.00127 0.13589,-6.08333c0,-1.68957 1.38477,-3.58334 2.7178,-3.58334c2.87052,0 13.90282,0 18.75284,0c1.42007,0 2.31013,1.89376 2.31013,3.58334c0,4.08206 0,5.91666 0,5.91666z"
                    fill="#f2eaae" stroke="#000000" stroke-width="0" stroke-linecap="butt" />
                <path
                    d="M244.91667,237.91667c0,0 9.5,8.50127 9.5,12.58333c0,1.68957 -1.09164,3.58333 -2.83334,3.58333c-5.94845,0 -19.47936,0 -23,0c-1.63494,0 -3.33334,-1.89376 -3.33334,-3.58333c0,-4.08206 10,-12.58333 10,-12.58333z"
                    data-paper-data="{&quot;index&quot;:null}" fill="#f2eaae" stroke="#000000" stroke-width="0"
                    stroke-linecap="butt" />
                <path
                    d="M222.5,257c0,-0.8873 0,-1.97644 0,-2.5c0,-0.80581 1.39711,-2 3,-2c4.0687,0 22.15842,0 29,0c1.65922,0 2.66667,1.43614 2.66667,2.33333c0,0.58411 0,1.26578 0,2.16667c0,0.98486 -1.1404,2.16667 -2.5,2.16667c-6.46023,0 -25.06196,0 -29.16667,0c-1.52929,0 -3,-0.96791 -3,-2.16667z"
                    fill="#f2eaae" stroke="#000000" stroke-width="0" stroke-linecap="butt" />
            </g>
            <g fill="none">
                <g stroke="#e6dea5" stroke-width="5" stroke-linecap="round">
                    <path d="" />
                </g>
                <g stroke="none" stroke-width="1" stroke-linecap="butt" font-family="sans-serif" font-weight="normal"
                    font-size="12" text-anchor="start" />
            </g>
            <g data-paper-data="{&quot;index&quot;:null}" fill="none">
                <g stroke="#e6dea5" stroke-width="5" stroke-linecap="round">
                    <path d="" />
                </g>
                <g stroke="none" stroke-width="1" stroke-linecap="butt" font-family="sans-serif" font-weight="normal"
                    font-size="12" text-anchor="start" />
            </g>
        </g>
    </g>
</svg>