<svg version="1.1" xmlns="http://www.w3.org/2000/svg" xmlns:xlink="http://www.w3.org/1999/xlink" width="1000"
    height="1000" viewBox="0,0,35.94298,59.59793">
    <g transform="translate(-221.22369,-199.56874)">
        <g data-paper-data="{&quot;isPaintingLayer&quot;:true}" fill-rule="nonzero" stroke-linejoin="miter"
            stroke-miterlimit="10" stroke-dasharray="" stroke-dashoffset="0" style="mix-blend-mode: normal">
            <path
                d="M231,237.5c0,0 -3.17942,-8.08189 -2.64341,-11.89035c3.96344,-7.46542 12.92119,-12.94299 12.92119,-12.94299l10.44445,-3.33333c0,0 -2.18698,9.76004 -2.65146,14.56601c-0.44179,4.57115 -0.07076,13.60066 -0.07076,13.60066z"
                fill="#f2eaae" stroke="#000000" stroke-width="0" stroke-linecap="butt" />
            <path
                d="M228.20833,246.75c0,0 0.13589,-2.00127 0.13589,-6.08333c0,-1.68957 1.38477,-3.58334 2.7178,-3.58334c2.87052,0 13.90282,0 18.75284,0c1.42007,0 2.31013,1.89376 2.31013,3.58334c0,4.08206 0,5.91666 0,5.91666z"
                fill="#f2eaae" stroke="#000000" stroke-width="0" stroke-linecap="butt" />
            <path
                d="M244.91667,237.91667c0,0 9.5,8.50127 9.5,12.58333c0,1.68957 -1.09164,3.58333 -2.83334,3.58333c-5.94845,0 -19.47936,0 -23,0c-1.63494,0 -3.33334,-1.89376 -3.33334,-3.58333c0,-4.08206 10,-12.58333 10,-12.58333z"
                data-paper-data="{&quot;index&quot;:null}" fill="#f2eaae" stroke="#000000" stroke-width="0"
                stroke-linecap="butt" />
            <path
                d="M222.5,257c0,-0.8873 0,-1.97644 0,-2.5c0,-0.80581 1.39711,-2 3,-2c4.0687,0 22.15842,0 29,0c1.65922,0 2.66667,1.43614 2.66667,2.33333c0,0.58411 0,1.26578 0,2.16667c0,0.98486 -1.1404,2.16667 -2.5,2.16667c-6.46023,0 -25.06196,0 -29.16667,0c-1.52929,0 -3,-0.96791 -3,-2.16667z"
                fill="#f2eaae" stroke="#000000" stroke-width="0" stroke-linecap="butt" />
            <g fill="none">
                <g stroke="#e6dea5" stroke-width="5" stroke-linecap="round">
                    <path d="" />
                </g>
                <g stroke="none" stroke-width="1" stroke-linecap="butt" font-family="sans-serif" font-weight="normal"
                    font-size="12" text-anchor="start" />
            </g>
            <g data-paper-data="{&quot;index&quot;:null}" fill="none">
                <g stroke="#e6dea5" stroke-width="5" stroke-linecap="round">
                    <path d="" />
                </g>
                <g stroke="none" stroke-width="1" stroke-linecap="butt" font-family="sans-serif" font-weight="normal"
                    font-size="12" text-anchor="start" />
            </g>
            <path
                d="M223.47222,213.91667c0,0 -1.65981,-0.62741 -2.20396,-2.38147c-0.21653,-0.69799 0.42618,-2.39631 0.42618,-2.39631c0,0 7.4507,-0.67126 11.29244,-0.27259c4.00345,0.41545 12.26312,2.71703 12.26312,2.71703l-9.55556,6.22222c0,0 -4.07284,-4.69903 -6.67445,-4.80065c-1.94624,-0.07603 -5.54777,0.91176 -5.54777,0.91176z"
                fill="#f2eaae" stroke="#f2eaae" stroke-width="0" stroke-linecap="butt" />
            <path
                d="M229.68666,206.09603c1.3163,-0.05142 6.84909,-2.26109 11.9947,-2.67529c5.02446,-0.40445 9.67975,0.98575 9.67975,0.98575c0,0 1.56361,2.12458 0.11845,5.07168c-0.82179,1.67588 -5.463,2.09069 -7.19792,2.33234c-0.25915,0.0361 -11.06193,-2.37781 -11.29476,-2.35365c-3.84173,0.39867 -11.29244,-0.27259 -11.29244,-0.27259c0,0 -0.64271,-1.69831 -0.42618,-2.3963c0.54414,-1.75406 2.20395,-2.38147 2.20395,-2.38147c0,0 4.26819,1.76556 6.21444,1.68954z"
                data-paper-data="{&quot;index&quot;:null}" fill="#f2eaae" stroke="#f2eaae" stroke-width="0"
                stroke-linecap="butt" />
            <path
                d="M244.55556,209.94444c0,0 0.64047,-4.41587 0.83007,-5.72312c0.09882,-0.68133 0.647,-1.78573 1.2815,-2.12167c1.56516,-0.82867 4.42636,-2.29547 5.45388,-2.50625c0.59779,-0.12262 1.21038,0.21833 1.13095,0.87905c-0.13372,1.11238 -0.32955,2.74151 -0.41765,3.47438c-0.086,0.7154 -0.85941,2.07471 -1.4335,2.37826c-1.35681,0.7174 -6.84526,3.61935 -6.84526,3.61935z"
                fill="#f2eaae" stroke="#000000" stroke-width="0" stroke-linecap="butt" />
        </g>
    </g>
</svg>